<?xml version="1.0" encoding="utf-8"?>
<!-- Generator: Adobe Illustrator 18.0.0, SVG Export Plug-In . SVG Version: 6.00 Build 0)  -->
<!DOCTYPE svg PUBLIC "-//W3C//DTD SVG 1.1//EN" "http://www.w3.org/Graphics/SVG/1.1/DTD/svg11.dtd">
<svg version="1.1" id="Layer_1" xmlns="http://www.w3.org/2000/svg" xmlns:xlink="http://www.w3.org/1999/xlink" x="0px" y="0px"
	 viewBox="291.3 266.7 1416 1417.3" enable-background="new 291.3 266.7 1416 1417.3" xml:space="preserve">
<path fill="#FFFFFF" d="M291.3,974.7c0-16,5.3-30,16.7-41.3c11.3-10.7,25.3-16,40-16h136c15.3,0,28,5.3,38.7,16.7
	c10,11.3,15.3,24.7,15.3,40.7s-4.7,29.3-14.7,40.7c-10,11.3-23.3,16.7-38.7,16.7h-136c-15.3,0-28.7-5.3-40-16.7
	C297.3,1004,291.3,990.7,291.3,974.7z M482,1436.7c0-15.3,5.3-28.7,15.3-40.7l98-95.3c10-10.7,23.3-15.3,39.3-15.3s29.3,5.3,40,15.3
	s16,22.7,16,38c0,16-5.3,30.7-16,42.7L580,1476c-27.3,21.3-54.7,21.3-82,0C487.3,1465.3,482,1452,482,1436.7z M482,514
	c0-15.3,5.3-28.7,15.3-40.7c13.3-11.3,27.3-16.7,42.7-16.7c14.7,0,28,5.3,39.3,16l95.3,98c10.7,10,16,23.3,16,39.3s-5.3,29.3-16,40
	s-24,16-40,16s-29.3-5.3-39.3-16L498,554.7C487.3,544,482,530,482,514z M652,974.7c0-62,15.3-120,46.7-173.3
	C730,748,772,705.3,826,674s111.3-46.7,173.3-46.7c46.7,0,91.3,9.3,134.7,28c42.7,18.7,80,43.3,110.7,74.7c31.3,31.3,56,68,74,110.7
	s27.3,88,27.3,134.7c0,62.7-15.3,120.7-46.7,174c-31.3,53.3-73.3,95.3-126.7,126.7c-53.3,31.3-111.3,46.7-174,46.7
	s-120.7-15.3-174-46.7c-53.3-31.3-95.3-73.3-126.7-126.7C668,1095.3,652,1037.3,652,974.7z M765.3,974.7
	c0,65.3,22.7,120.7,68.7,166.7c45.3,46,100.7,69.3,166,69.3s120.7-23.3,166.7-69.3s69.3-101.3,69.3-166.7
	c0-64-23.3-118.7-69.3-164.7c-46-45.3-101.3-68-166.7-68c-64.7,0-120,22.7-165.3,68C788,856,765.3,910.7,765.3,974.7z M942.7,1493.3
	c0-16,5.3-29.3,16.7-40c11.3-10.7,24.7-16,40-16c16,0,30,5.3,40.7,16s16,24,16,40V1626c0,16-5.3,30-16.7,41.3
	c-11.3,11.3-24.7,16.7-40,16.7s-29.3-5.3-40-16.7c-11.3-11.3-16.7-25.3-16.7-41.3V1493.3L942.7,1493.3z M942.7,460V324
	c0-15.3,5.3-28.7,16.7-40c11.3-11.3,24.7-17.3,40.7-17.3s28.7,5.3,40,16.7c11.3,11.3,16.7,24.7,16.7,40V460c0,15.3-5.3,28-16.7,38.7
	c-11.3,10.7-24.7,15.3-40,15.3s-29.3-5.3-40-15.3S942.7,475.3,942.7,460z M1310.7,1338.7c0-15.3,5.3-28,15.3-37.3
	c10-10.7,22.7-15.3,37.3-15.3c16,0,29.3,5.3,40,15.3l97.3,95.3c10.7,11.3,16,25.3,16,40.7s-5.3,28.7-16,39.3
	c-26.7,20.7-53.3,20.7-80,0L1326,1382C1316,1370,1310.7,1356,1310.7,1338.7z M1310.7,610.7c0-16.7,5.3-30,15.3-39.3l94.7-98
	c11.3-10.7,24.7-16,39.3-16c16,0,29.3,5.3,40,16.7c11.3,11.3,16.7,24.7,16.7,40c0,16.7-5.3,30.7-16,41.3l-97.3,95.3
	c-12,10.7-25.3,16-40,16c-15.3,0-27.3-5.3-37.3-16C1316,640,1310.7,626.7,1310.7,610.7z M1461.3,974.7c0-16,5.3-29.3,16-41.3
	c10.7-10.7,23.3-16,38-16H1650c15.3,0,28.7,6,40,17.3s17.3,24.7,17.3,40s-6,28.7-17.3,40s-24.7,16.7-40,16.7h-134.7
	c-15.3,0-28.7-5.3-38.7-16.7C1466.7,1003.3,1461.3,990.7,1461.3,974.7z"/>
</svg>
