<?xml version="1.0" encoding="utf-8"?>
<!-- Generator: Adobe Illustrator 18.0.0, SVG Export Plug-In . SVG Version: 6.00 Build 0)  -->
<!DOCTYPE svg PUBLIC "-//W3C//DTD SVG 1.1//EN" "http://www.w3.org/Graphics/SVG/1.1/DTD/svg11.dtd">
<svg version="1.1" id="Layer_1" xmlns="http://www.w3.org/2000/svg" xmlns:xlink="http://www.w3.org/1999/xlink" x="0px" y="0px"
	 viewBox="527.3 492 942 946.7" enable-background="new 527.3 492 942 946.7" xml:space="preserve">
<path fill="#FFFFFF" d="M527.3,965.3c0-64,12.7-124.7,37.3-183.3c24.7-58.7,58.7-108.7,100.7-150.7c42-42,92.7-76,151.3-101.3
	c58.7-25.3,120-38,183.3-38h76c10.7,2.7,15.3,9.3,15.3,18.7l3.3,58.7c2.7,84.7,32.7,156.7,91.3,216c58.7,59.3,129.3,91.3,212.7,94.7
	l54.7,4.7c10.7,0,16,5.3,16,15.3v65.3c0.7,85.3-20,164.7-62,237.3c-42,72.7-98.7,130-171.3,172.7c-72,42-151.3,63.3-236.7,63.3
	c-64.7,0-126.7-12.7-185.3-37.3c-58.7-24.7-108.7-58.7-150.7-100.7S588,1208,563.3,1150C540,1091.3,527.3,1030,527.3,965.3z
	 M649.3,965.3c0,50.7,10,98.7,30,144c20,44.7,46.7,82.7,79.3,113.3c32.7,30.7,70,54.7,112.7,72c42,18,85.3,26.7,129.3,26.7
	c38.7,0,78-7.3,117.3-22.7c39.3-15.3,76-36.7,110-64c34-27.3,62.7-62,87.3-104.7s40-88.7,47.3-139.3c-108.7-22.7-196-69.3-261.3-140
	C1036,780,998,697.3,988,601.3c-64,4-121.3,23.3-174,58.7c-52,35.3-92.7,80-121.3,134.7C664,849.3,649.3,906,649.3,965.3z"/>
</svg>
