<?xml version="1.0" encoding="utf-8"?>
<!-- Generator: Adobe Illustrator 18.0.0, SVG Export Plug-In . SVG Version: 6.00 Build 0)  -->
<!DOCTYPE svg PUBLIC "-//W3C//DTD SVG 1.1//EN" "http://www.w3.org/Graphics/SVG/1.1/DTD/svg11.dtd">
<svg version="1.1" id="Layer_1" xmlns="http://www.w3.org/2000/svg" xmlns:xlink="http://www.w3.org/1999/xlink" x="0px" y="0px"
	 viewBox="259.3 486.7 1480.7 970" enable-background="new 259.3 486.7 1480.7 970" xml:space="preserve">
<path fill="#34495E" d="M259.3,1173.3c0-66,20.7-125.3,62-176.7c41.3-51.3,94-84.7,158.7-99.3c17.3-78,56.7-142.7,118.7-192
	c62-50,133.3-74.7,214.7-74.7c78.7,0,149.3,24,210.7,72.7C1086,752,1126,814,1144,890h18c78.7,0,145.3,27.3,200.7,82.7
	c55.3,55.3,83.3,122,83.3,200c0,78.7-28,145.3-83.3,200.7c-55.3,55.3-122,83.3-200.7,83.3H544c-38.7,0-75.3-7.3-110-22.7
	c-34.7-15.3-66-34-91.3-59.3s-45.3-56-60.7-90.7C266.7,1249.3,259.3,1211.3,259.3,1173.3z M356,1173.3c0,50.7,18.7,94.7,54.7,130.7
	c36,36,80.7,54.7,132.7,54.7H1162c51.3,0,96-18,132.7-54.7c36.7-36.7,55.3-80,55.3-130.7s-18-94.7-55.3-130.7
	c-36.7-36-80.7-54.7-132.7-54.7h-92.7c-6.7,0-10-3.3-10-10l-4.7-32.7c-6.7-62.7-33.3-115.3-79.3-156.7c-46-41.3-100.7-62-163.3-62
	s-117.3,20.7-164,62.7c-46.7,41.3-72.7,94-78.7,156l-4.7,28c0,6.7-3.3,10-10.7,10l-30,4.7c-48,4-88,24-120.7,59.3
	C372.7,1082.7,356,1124.7,356,1173.3z M946,592c-6.7,6-5.3,10.7,4.7,14c28.7,12.7,52.7,24.7,72,36.7c7.3,2,12.7,1.3,14.7-2
	c40.7-38,87.3-57.3,141.3-57.3c54,0,100,18,140,54c39.3,36,61.3,80.7,66,133.3l6,42.7h94.7c43.3,0,80.7,15.3,112,46.7
	c31.3,31.3,46.7,68,46.7,110.7c0,40-14,74.7-41.3,104.7c-27.3,30-61.3,46.7-102,51.3c-6.7,0-10,3.3-10,10.7v75.3
	c0,7.3,3.3,10.7,10,10.7c67.3-4,124-30.7,170-79.3s69.3-106.7,69.3-173.3c0-70.7-24.7-130.7-74.7-180c-50-50-110-74.7-180-74.7h-10
	c-17.3-66.7-54-121.3-110-164.7c-55.3-43.3-118-64.7-186.7-64.7C1085.3,486,1007.3,521.3,946,592z"/>
</svg>
