<?xml version="1.0" encoding="utf-8"?>
<!-- Generator: Adobe Illustrator 18.0.0, SVG Export Plug-In . SVG Version: 6.00 Build 0)  -->
<!DOCTYPE svg PUBLIC "-//W3C//DTD SVG 1.1//EN" "http://www.w3.org/Graphics/SVG/1.1/DTD/svg11.dtd">
<svg version="1.1" id="Layer_1" xmlns="http://www.w3.org/2000/svg" xmlns:xlink="http://www.w3.org/1999/xlink" x="0px" y="0px"
	 viewBox="174.7 494.7 1650 1169.3" enable-background="new 174.7 494.7 1650 1169.3" xml:space="preserve">
<path fill="#FFFFFF" d="M174.7,1403.3c0-16,5.3-30,16.7-40.7c11.3-10.7,25.3-16,42-16H1478c16.7,0,30,5.3,40.7,16
	c10.7,10.7,16,24,16,40.7c0,15.3-5.3,28.7-16.7,38.7c-11.3,10.7-24.7,15.3-40,15.3H233.3c-16.7,0-30.7-5.3-42-15.3
	C180,1431.3,174.7,1418.7,174.7,1403.3z M349.3,1194c0-16,6-29.3,17.3-40c10-10,23.3-15.3,39.3-15.3h1244.7c15.3,0,28,5.3,38.7,16
	c10.7,10.7,15.3,23.3,15.3,39.3s-5.3,29.3-15.3,40c-10.7,11.3-23.3,16.7-38.7,16.7H406c-16,0-29.3-5.3-40-16.7
	C354.7,1222.7,349.3,1209.3,349.3,1194z M358,1034.7c0,6,3.3,8.7,10,8.7h95.3c4,0,8.7-3.3,13.3-10.7c16-34.7,39.3-62.7,70.7-84.7
	c31.3-22,66-34.7,103.3-37.3l36.7-4.7c7.3,0,11.3-4,11.3-12l4.7-33.3c7.3-72,37.3-132,91.3-180c54-48,117.3-72,190-72
	c72,0,134.7,24,188.7,71.3c53.3,47.3,84,107.3,91.3,178.7l5.3,38c0,7.3,4.7,11.3,13.3,11.3h106c42.7,0,82,11.3,117.3,34.7
	c35.3,23.3,61.3,53.3,78.7,91.3c4.7,7.3,9.3,10.7,14,10.7h95.3c8,0,11.3-4.7,9.3-15.3c-19.3-68-58.7-124-116-167.3
	c-58-43.3-124-64.7-198-64.7h-21.3c-22-88.7-68.7-161.3-140-218c-71.3-56.7-152-84.7-243.3-84.7c-93.3,0-176,29.3-248.7,88
	S618,716,597.3,806.7c-56.7,13.3-106.7,40-149.3,80.7c-42.7,40.7-72.7,88.7-89.3,145.3v-2.7C358,1030,358,1032,358,1034.7z
	 M465.3,1607.3c0-16,6-28.7,17.3-39.3c10-10,23.3-15.3,40-15.3H1768c16,0,29.3,5.3,40,15.3c11.3,10.7,16.7,23.3,16.7,38.7
	c0,16-5.3,29.3-16.7,40.7c-11.3,11.3-24.7,16.7-40,16.7H522.7c-15.3,0-28.7-6-40-17.3C471.3,1636.7,465.3,1622.7,465.3,1607.3z"/>
</svg>
