<?xml version="1.0" encoding="utf-8"?>
<!-- Generator: Adobe Illustrator 18.0.0, SVG Export Plug-In . SVG Version: 6.00 Build 0)  -->
<!DOCTYPE svg PUBLIC "-//W3C//DTD SVG 1.1//EN" "http://www.w3.org/Graphics/SVG/1.1/DTD/svg11.dtd">
<svg version="1.1" id="Layer_1" xmlns="http://www.w3.org/2000/svg" xmlns:xlink="http://www.w3.org/1999/xlink" x="0px" y="0px"
	 viewBox="276 357.3 1448.7 1099.3" enable-background="new 276 357.3 1448.7 1099.3" xml:space="preserve">
<path fill="#34495E" d="M276,1126.7c0-77.3,23.3-145.3,70.7-205.3c47.3-60,108-98,182.7-114.7c15.3-68.7,46.7-128.7,93.3-180
	c46.7-51.3,103.3-88,168.7-110c41.3-14,84-21.3,128.7-21.3c54,0,106.7,10.7,156.7,32c18.7-31.3,40.7-58.7,66-81.3
	c25.3-22.7,51.3-40.7,78-52.7c26.7-12,53.3-21.3,78.7-27.3c25.3-6,50.7-8.7,74.7-8.7c25.3,0,52.7,3.3,82,10.7l54.7,16.7
	c9.3,4,12,8.7,9.3,14.7l-9.3,40c-4.7,20.7-6.7,40-6.7,57.3c0,20.7,3.3,42,10,63.3c6.7,21.3,16,42,29.3,62.7
	c12.7,20.7,30.7,38.7,53.3,55.3c22.7,16.7,48,29.3,76.7,38l41.3,14.7c6.7,2,10,5.3,10,10.7c0,1.3-0.7,2.7-1.3,4.7l-12,44.7
	c-18,72-52,128.7-100,171.3c26.7,46.7,41.3,96.7,43.3,149.3c0.7,3.3,0.7,8,0.7,15.3c0,59.3-14.7,114.7-44.7,165.3
	c-29.3,50.7-70,90.7-120,120c-50.7,29.3-106,44.7-165.3,44.7H604.7c-59.3,0-114.7-14.7-165.3-44.7s-90-70-119.3-120
	C290.7,1242,276,1186.7,276,1126.7z M390,1126.7c0,59.3,21.3,110.7,64,154c42.7,43.3,92.7,65.3,150.7,65.3h720.7
	c59.3,0,110-21.3,152-64.7c42-43.3,63.3-94.7,63.3-154.7c0-58.7-21.3-108.7-64-150.7c-42.7-42-93.3-63.3-152-63.3H1206l-6.7-50
	c-6.7-67.3-34.7-125.3-84-172.7c-49.3-47.3-108-74-175.3-80c-2,0-5.3,0-10-0.7s-7.3-0.7-10-0.7c-34,0-68,6.7-102.7,19.3v-1.3
	c-48.7,18.7-90,49.3-122.7,91.3c-33.3,42-53.3,90-60,144.7l-4.7,48l-45.3,2c-56,6.7-102.7,30-140,70.7S390,1071.3,390,1126.7z
	 M1173.3,586c70.7,60.7,114.7,131.3,131.3,212h21.3c82.7,0,153.3,26,211.3,78.7c22-20.7,38.7-44.7,50.7-71.3
	c-60.7-28.7-108.7-72.7-144-131.3c-34.7-58.7-52.7-120.7-52.7-185.3v-16c-3.3-0.7-8.7-0.7-16-0.7c-38.7-0.7-76.7,8.7-113.3,29.3
	C1225.3,521.3,1195.3,549.3,1173.3,586z"/>
</svg>
