<?xml version="1.0" encoding="utf-8"?>
<!-- Generator: Adobe Illustrator 18.0.0, SVG Export Plug-In . SVG Version: 6.00 Build 0)  -->
<!DOCTYPE svg PUBLIC "-//W3C//DTD SVG 1.1//EN" "http://www.w3.org/Graphics/SVG/1.1/DTD/svg11.dtd">
<svg version="1.1" id="Layer_1" xmlns="http://www.w3.org/2000/svg" xmlns:xlink="http://www.w3.org/1999/xlink" x="0px" y="0px"
	 viewBox="206 80 1588.7 1466" enable-background="new 206 80 1588.7 1466" xml:space="preserve">
<path fill="#34495E" d="M206,895.3c0,18,6,32.7,18.7,44.7c12.7,12,28.7,17.3,48,17.3h112.7c18,0,33.3-6,46-18
	c12.7-12,19.3-26.7,19.3-44c0-19.3-6-35.3-18.7-47.3c-12.7-12-28-18.7-46-18.7H272.7c-19.3,0-35.3,6-48,18.7
	C212,859.3,206,875.3,206,895.3z M324,1307.3c0,64.7,23.3,120.7,70.7,168C442,1522.7,497.3,1546,562,1546h457.3
	c64.7,0,120-23.3,166-70c46-46.7,69.3-102.7,69.3-168.7c0-32-4.7-59.3-14-82c55.3-35.3,99.3-82.7,131.3-141.3s48.7-122,48.7-189.3
	c0-54-10.7-106-32-155.3c-21.3-49.3-50-92-85.3-127.3s-78-64-127.3-85.3c-49.3-21.3-100.7-32-154.7-32c-72.7,0-140,18-201.3,54
	S710,633.3,674.7,694C639.3,755.3,622,822,622,894.7v22.7c-66.7,38-110.7,93.3-132,166c-50.7,16-90.7,44-120.7,84.7
	C339.3,1208.7,324,1255.3,324,1307.3z M428,363.3c0,18.7,6,34,17.3,44.7l107.3,112.7c31.3,24,62.7,24,94,0
	c12.7-12.7,18.7-28,18.7-46.7c0-18-6-33.3-18.7-46.7l-110-110c-14-12.7-30-19.3-46.7-19.3c-18.7,0-34,6-45.3,18.7
	C433.3,329.3,428,344.7,428,363.3z M456,1307.3c0-28,8.7-52,26.7-72c18-20,40.7-31.3,68-34l41.3-5.3c8.7,0,13.3-5.3,13.3-15.3
	l6-37.3c4.7-38.7,20.7-70.7,48.7-96c28-26,60.7-38.7,98.7-38.7c38.7,0,72.7,12.7,100.7,38.7c28.7,26,45.3,58,50,96l5.3,43.3
	c4,10,9.3,15.3,16,15.3h88c28.7,0,53.3,10.7,74.7,31.3c21.3,20.7,31.3,45.3,31.3,74.7c0,30-10.7,55.3-31.3,76.7
	c-20.7,21.3-46,32-74.7,32H562c-30,0-55.3-10.7-75.3-32C466,1363.3,456,1337.3,456,1307.3z M750.7,881.3c4.7-72.7,32.7-134,84.7-184
	c51.3-49.3,114-74.7,186-74.7c74,0,137.3,26.7,189.3,79.3c52,52.7,78,117.3,78,192.7c0,46.7-11.3,90-34,130
	c-22.7,40-53.3,72-92,96.7c-39.3-32.7-84.7-48.7-135.3-48.7c-19.3-58.7-54-104.7-102.7-139.3s-104-52-165.3-52L750.7,881.3
	L750.7,881.3z M956.7,298c0,18,6.7,34,19.3,46.7s28,19.3,46,19.3c18.7,0,34-6.7,46.7-19.3c12.7-12.7,19.3-28,19.3-46.7V142
	c0-17.3-6.7-32-19.3-44s-28-18-46.7-18c-18,0-33.3,6-46,18s-19.3,26.7-19.3,44L956.7,298L956.7,298z M1378,1313.3
	c0,18,6,33.3,18,46.7l109.3,108c28,28,59.3,28,94,0c12-11.3,17.3-26,17.3-45.3c0-18-6-32.7-17.3-44.7l-112.7-111.3
	c-12-11.3-27.3-16.7-45.3-16.7c-18.7,0-33.3,6-45.3,18C1384,1280,1378,1295.3,1378,1313.3z M1378,472.7c0,18.7,6,34.7,18,48
	c12,12,27.3,18,45.3,18s33.3-6,45.3-18L1599.3,408c12-11.3,17.3-26,17.3-44.7s-6.7-34-19.3-46c-12.7-12-28-18.7-46.7-18.7
	c-17.3,0-32.7,6.7-45.3,19.3L1396,426.7C1384,438.7,1378,454,1378,472.7z M1550,895.3c0,18,6,32.7,18.7,44.7
	c12.7,12,28.7,17.3,48,17.3h112.7c18,0,33.3-6,46-18c12.7-12,19.3-26.7,19.3-44c0-19.3-6-35.3-18.7-47.3c-12.7-12-28-18.7-46-18.7
	h-112.7c-19.3,0-35.3,6-48,18.7C1556.7,859.3,1550,875.3,1550,895.3z"/>
</svg>
