<?xml version="1.0" encoding="utf-8"?>
<!-- Generator: Adobe Illustrator 18.0.0, SVG Export Plug-In . SVG Version: 6.00 Build 0)  -->
<!DOCTYPE svg PUBLIC "-//W3C//DTD SVG 1.1//EN" "http://www.w3.org/Graphics/SVG/1.1/DTD/svg11.dtd">
<svg version="1.1" id="Layer_1" xmlns="http://www.w3.org/2000/svg" xmlns:xlink="http://www.w3.org/1999/xlink" x="0px" y="0px"
	 viewBox="309.3 496 1382 1337.3" enable-background="new 309.3 496 1382 1337.3" xml:space="preserve">
<path fill="#34495E" d="M309.3,1127.3c0-76.7,24-144.7,72-204.7c48-60,108.7-98,182-115.3c20.7-90.7,68-165.3,140.7-224
	S860,496,954,496c92,0,173.3,28.7,245.3,85.3c72,56.7,118.7,130,140,219.3h21.3c59.3,0,114.7,14.7,165.3,43.3
	c50.7,28.7,91.3,68.7,120.7,118.7c29.3,50,44.7,105.3,44.7,164.7c0,58.7-14,112.7-42,162.7c-28,50-66.7,90-115.3,120
	c-48.7,30-102,46-160,47.3c-8.7,0-13.3-4-13.3-11.3v-88.7c0-8,4.7-12,13.3-12c56.7-2.7,105.3-25.3,145.3-68s60-92.7,60-150.7
	c0-58-22-108-65.3-150.7c-43.3-42.7-94.7-64-154-64h-107.3c-8,0-12-4-12-11.3l-5.3-38.7c-7.3-72-38.7-132.7-92.7-180.7
	c-54.7-48.7-117.3-72.7-190-72.7s-136.7,24-190,72.7C708.7,730,678.7,790,672,862l-4.7,35.3c0,8-4.7,12.7-13.3,12.7l-35.3,2
	c-55.3,6.7-102,30.7-140,71.3c-38,40.7-56.7,88.7-56.7,144c0,58,20,108,60,150.7s88.7,65.3,145.3,68c7.3,0,11.3,4,11.3,12v88.7
	c0,7.3-4,11.3-11.3,11.3c-89.3-4-164.7-38-226.7-102C338.7,1292,309.3,1216,309.3,1127.3z M666,1573.3c0-2.7,0.7-7.3,2.7-13.3
	l108.7-384.7c4-12.7,11.3-22.7,21.3-29.3c10-6.7,20.7-10,30.7-10c4.7,0,10,0.7,16,2c16,2.7,28,11.3,36,24.7s10,28,5.3,44.7
	l-108.7,382c-8,28.7-26.7,42.7-54.7,42.7c-2.7,0-4.7-0.7-7.3-1.3c-4-1.3-6-2-6.7-2c-14.7-4-25.3-11.3-32.7-22
	C669.3,1595.3,666,1584.7,666,1573.3z M840.7,1760.7l162.7-584.7c2.7-12.7,9.3-22.7,20-29.3c10.7-6.7,21.3-10,32.7-10
	c6,0,12,0.7,18,2c14.7,4,25.3,12.7,32.7,26c7.3,13.3,8.7,27.3,4.7,42.7l-162,585.3c-2.7,11.3-8.7,20.7-19.3,28.7
	c-10.7,8-21.3,12-34,12c-6,0-12-1.3-16.7-3.3c-13.3-3.3-24.7-12-34.7-26C837.3,1792,836,1778,840.7,1760.7z M1116,1574.7
	c0-2.7,0.7-7.3,2.7-15.3l108.7-384.7c4-12.7,10.7-22.7,20-29.3c10-6.7,20-10,30.7-10c5.3,0,11.3,0.7,17.3,2c14,4,24,10.7,30.7,20.7
	c6.7,10,10,20.7,10,31.3c0,2-0.7,5.3-1.3,9.3c-0.7,4-1.3,6.7-1.3,8l-108.7,382c-2.7,12.7-8.7,23.3-18.7,30.7s-21.3,11.3-34,11.3
	l-16-3.3c-13.3-4-23.3-10.7-30.7-21.3C1119.3,1596,1116,1585.3,1116,1574.7z"/>
</svg>
