<?xml version="1.0" encoding="utf-8"?>
<!-- Generator: Adobe Illustrator 18.0.0, SVG Export Plug-In . SVG Version: 6.00 Build 0)  -->
<!DOCTYPE svg PUBLIC "-//W3C//DTD SVG 1.1//EN" "http://www.w3.org/Graphics/SVG/1.1/DTD/svg11.dtd">
<svg version="1.1" id="Layer_1" xmlns="http://www.w3.org/2000/svg" xmlns:xlink="http://www.w3.org/1999/xlink" x="0px" y="0px"
	 viewBox="272.7 495.3 1388 1372.7" enable-background="new 272.7 495.3 1388 1372.7" xml:space="preserve">
<path fill="#34495E" d="M272.7,1130c0-77.3,24-146,72-206c48-60,109.3-99.3,182.7-116c20.7-91.3,67.3-166,140-224.7
	s156.7-88,251.3-88c54,0,103.3,8.7,146.7,26.7c0,0.7,0,0.7,0.7,1.3c56,21.3,105.3,56,147.3,103.3h2c45.3,48.7,75.3,106.7,91.3,174.7
	h20.7c72,0,134.7,19.3,188.7,57.3V858c35.3,24,65.3,53.3,89.3,88.7c24,35.3,40,74,48.7,116c2.7,14,4,25.3,5.3,34.7v4
	c0,0.7,0,4,0.7,11.3c0.7,7.3,0.7,12.7,0.7,16v2c0,58.7-14,113.3-42.7,163.3c-28,50-66.7,90.7-116,120.7c-48.7,30-102.7,46-161.3,48
	c-8.7,0-13.3-4-13.3-11.3V1362c0-8.7,4.7-12.7,13.3-12.7c57.3-2.7,105.3-25.3,145.3-68c40-42.7,60-92.7,60-150.7
	c0-59.3-21.3-110-64.7-152.7c-42.7-42.7-94-64-154-64H1220c-8,0-12-4-12-11.3l-5.3-39.3c-6.7-66.7-34.7-124-84.7-172.7
	c-0.7-0.7-0.7-1.3-1.3-2c-0.7-0.7-1.3-1.3-1.3-2c-0.7-0.7-1.3-1.3-2.7-1.3c0-1.3-0.7-2-1.3-2c-48.7-44-105.3-69.3-170.7-74.7
	c-4.7-0.7-12-0.7-22.7-0.7c-73.3,0-136.7,24.7-190.7,73.3c-54,48.7-84.7,109.3-91.3,181.3l-5.3,39.3c-2,6-7.3,9.3-14.7,9.3l-32.7,2
	c-56,6.7-103.3,30.7-140.7,71.3c-37.3,40.7-56,89.3-56,145.3v2.7h2c0.7,32,7.3,62,20,90c13.3,28.7,30.7,52.7,53.3,72.7
	c14,12,30,22.7,49.3,32v0.7c26.7,12.7,53.3,20,80.7,21.3c7.3,0,11.3,4,11.3,12v89.3c0,7.3-4,11.3-11.3,11.3
	c-34.7-2-67.3-8.7-98.7-20v0.7c-55.3-19.3-102.7-51.3-140.7-95.3s-63.3-96-74-154v-2c-0.7-0.7-0.7-1.3-0.7-2.7
	C274,1171.3,272.7,1151.3,272.7,1130z M639.3,1608c0-2,0.7-4.7,1.3-8.7c0.7-3.3,1.3-6,1.3-8l6-39.3c4.7-16,13.3-27.3,27.3-35.3
	c14-8,28.7-9.3,45.3-5.3c15.3,4.7,26,14,34,27.3c7.3,14,8.7,28,4.7,42l-9.3,40c-6.7,29.3-23.3,44-50.7,44c-2,0-5.3-0.7-9.3-1.3
	c-4-0.7-6.7-1.3-9.3-1.3c-14-4-24-11.3-30.7-22C642.7,1630,639.3,1619.3,639.3,1608z M688.7,1412c0-16,5.3-28.7,15.3-39.3
	c10-10.7,23.3-15.3,39.3-15.3c16,0,28.7,5.3,39.3,15.3c10.7,10,15.3,23.3,15.3,39.3c0,15.3-5.3,28-15.3,38.7
	c-10,10.7-23.3,15.3-39.3,15.3c-15.3,0-28-5.3-38-16C694.7,1439.3,688.7,1426.7,688.7,1412z M798,1811.3c0-2.7,0.7-7.3,2.7-15.3
	l8.7-39.3c4.7-15.3,14-26.7,27.3-34c14-8,28-9.3,42-4.7c15.3,2.7,27.3,11.3,35.3,24.7s10,28.7,5.3,45.3l-8.7,39.3
	c-6.7,27.3-24.7,40.7-53.3,40.7c-4.7,0-10.7-0.7-16-2c-14.7-4-25.3-11.3-32.7-22C802,1833.3,798,1822.7,798,1811.3z M850.7,1617.3
	c0-15.3,5.3-28.7,15.3-38.7c10.7-10.7,23.3-15.3,39.3-15.3c16,0,28.7,5.3,39.3,15.3c10.7,10.7,15.3,23.3,15.3,38.7
	c0,16-5.3,28.7-15.3,39.3c-10.7,10.7-23.3,15.3-39.3,15.3c-15.3,0-28-5.3-38.7-16C856,1645.3,850.7,1632.7,850.7,1617.3z M892,1466
	c0-6.7,0.7-12.7,2-18l15.3-60c4.7-15.3,14-27.3,27.3-35.3c14-8,28-10,42.7-5.3c16,4.7,27.3,13.3,35.3,26.7s9.3,27.3,4.7,42l-17.3,60
	c-5.3,18.7-14.7,30.7-27.3,37.3c-12.7,6.7-27.3,8-42.7,4c-13.3-2.7-23.3-9.3-30-20C894,1486.7,891.3,1476,892,1466z M1076,1608.7
	c0-2,0-5.3,0.7-8.7c0.7-3.3,0.7-6,0.7-7.3l6-39.3c4.7-16,13.3-27.3,27.3-35.3c14-8,28.7-9.3,45.3-5.3c15.3,4.7,26.7,14,34,27.3
	c8,14,9.3,28,4.7,42l-9.3,40c-6.7,29.3-23.3,44-50.7,44c-2,0-5.3-0.7-9.3-1.3c-4-0.7-7.3-1.3-9.3-1.3c-13.3-4-23.3-11.3-30-22
	C1080,1630.7,1076,1620,1076,1608.7z M1125.3,1412.7c0-16,5.3-28.7,15.3-39.3c10.7-10.7,23.3-15.3,39.3-15.3
	c16,0,28.7,5.3,39.3,15.3c10.7,10.7,15.3,23.3,15.3,39.3c0,15.3-5.3,28.7-15.3,38.7s-22.7,15.3-38.7,15.3c-16,0-28.7-5.3-38.7-16
	C1131.3,1440.7,1125.3,1428,1125.3,1412.7z"/>
</svg>
