<?xml version="1.0" encoding="utf-8"?>
<!-- Generator: Adobe Illustrator 18.0.0, SVG Export Plug-In . SVG Version: 6.00 Build 0)  -->
<!DOCTYPE svg PUBLIC "-//W3C//DTD SVG 1.1//EN" "http://www.w3.org/Graphics/SVG/1.1/DTD/svg11.dtd">
<svg version="1.1" id="Layer_1" xmlns="http://www.w3.org/2000/svg" xmlns:xlink="http://www.w3.org/1999/xlink" x="0px" y="0px"
	 viewBox="309.3 496 1380.7 1333.3" enable-background="new 309.3 496 1380.7 1333.3" xml:space="preserve">
<path fill="#FFFFFF" d="M309.3,1130c0-77.3,23.3-145.3,70.7-205.3c47.3-60,108-98.7,182.7-117.3c20.7-90.7,67.3-165.3,140-224
	s156-87.3,250-87.3c92,0,173.3,28.7,245.3,85.3c72,56.7,118.7,130,140,219.3h21.3c59.3,0,114.7,14.7,165.3,44
	c50.7,29.3,91.3,69.3,120.7,120c29.3,50.7,44.7,106,44.7,165.3c0,88-30.7,164.7-92.7,228c-61.3,64-136.7,97.3-225.3,100
	c-8.7,0-13.3-4-13.3-11.3V1358c0-8,4.7-12,13.3-12c56.7-2.7,105.3-25.3,145.3-68s60-92,60-148.7c0-59.3-21.3-110-64.7-153.3
	c-43.3-43.3-94.7-64.7-154.7-64.7h-107.3c-8,0-12-4-12-11.3l-5.3-38.7c-7.3-72-38.7-132.7-92.7-181.3
	c-54.7-48.7-117.3-73.3-190-73.3c-73.3,0-136.7,24.7-190.7,74c-54,49.3-84.7,110-91.3,183.3l-4,33.3c0,8-4.7,12.7-13.3,12.7
	l-35.3,4.7c-55.3,4.7-102,27.3-140,69.3c-38,42-56.7,90-56.7,146c0,56.7,20,106,60,148.7s88.7,64.7,145.3,68c7.3,0,11.3,4,11.3,12
	v88.7c0,7.3-4,11.3-11.3,11.3c-89.3-2.7-164.7-36-226.7-100C340,1294.7,309.3,1218,309.3,1130z M733.3,1401.3c0-14.7,5.3-28,16-38.7
	c10.7-10.7,23.3-16,39.3-16c15.3,0,28.7,5.3,39.3,16c10.7,10.7,16,24,16,38.7c0,16-5.3,29.3-16,40c-10.7,11.3-23.3,16.7-39.3,16.7
	c-15.3,0-28.7-5.3-39.3-16.7C738.7,1430.7,733.3,1417.3,733.3,1401.3z M733.3,1643.3c0-16,5.3-29.3,16-40
	c10.7-10,23.3-15.3,38.7-15.3s28.7,5.3,39.3,15.3c10.7,10.7,16,23.3,16,39.3s-5.3,28.7-16,39.3c-10.7,10.7-23.3,15.3-39.3,15.3
	c-15.3,0-28.7-5.3-39.3-15.3C738.7,1672,733.3,1658.7,733.3,1643.3z M946,1530c0-15.3,5.3-29.3,16.7-41.3c10.7-10.7,23.3-16,38-16
	c15.3,0,28.7,6,40,17.3c11.3,11.3,17.3,24.7,17.3,40c0,15.3-5.3,28.7-16.7,40c-11.3,11.3-24.7,16.7-40.7,16.7
	c-15.3,0-28-5.3-38.7-16.7C951.3,1558.7,946,1545.3,946,1530z M946,1288.7c0-15.3,5.3-28.7,16.7-40c12-10.7,24.7-16,38-16
	c16,0,29.3,5.3,40.7,16.7c11.3,11.3,16.7,24,16.7,40c0,15.3-5.3,28.7-16.7,39.3c-11.3,10.7-24.7,16-40.7,16c-15.3,0-28-5.3-38.7-16
	C951.3,1317.3,946,1304,946,1288.7z M946,1774c0-15.3,5.3-28.7,16.7-40.7c10.7-10.7,23.3-16,38-16c16,0,29.3,5.3,40.7,16.7
	c11.3,11.3,16.7,24.7,16.7,40c0,15.3-5.3,28.7-16.7,39.3c-11.3,10.7-24.7,16-40.7,16c-15.3,0-28-5.3-38.7-16
	C951.3,1802,946,1789.3,946,1774z M1160.7,1401.3c0-14.7,5.3-27.3,16.7-38.7c11.3-11.3,24.7-16.7,40-16.7s28.7,5.3,39.3,16
	c10.7,10.7,16,24,16,38.7c0,16-5.3,29.3-16,40c-10.7,11.3-23.3,16.7-39.3,16.7s-29.3-5.3-40-16.7
	C1166.7,1430,1160.7,1416.7,1160.7,1401.3z M1160.7,1643.3c0-14.7,5.3-28,16.7-40c10.7-10,24-15.3,40-15.3s28.7,5.3,39.3,15.3
	c10.7,10,15.3,23.3,15.3,39.3s-5.3,28.7-15.3,39.3c-10.7,10.7-23.3,15.3-39.3,15.3s-29.3-5.3-40-16
	C1166.7,1671.3,1160.7,1658.7,1160.7,1643.3z"/>
</svg>
