<?xml version="1.0" encoding="utf-8"?>
<!-- Generator: Adobe Illustrator 18.0.0, SVG Export Plug-In . SVG Version: 6.00 Build 0)  -->
<!DOCTYPE svg PUBLIC "-//W3C//DTD SVG 1.1//EN" "http://www.w3.org/Graphics/SVG/1.1/DTD/svg11.dtd">
<svg version="1.1" id="Layer_1" xmlns="http://www.w3.org/2000/svg" xmlns:xlink="http://www.w3.org/1999/xlink" x="0px" y="0px"
	 viewBox="310 788 1380.7 487.3" enable-background="new 310 788 1380.7 487.3" xml:space="preserve">
<path fill="#FFFFFF" d="M310,1033.3c0-14.7,5.3-27.3,15.3-37.3c10.7-10,23.3-14.7,38-14.7h805.3c14.7,0,26.7,4.7,36,14.7
	c9.3,10,14.7,22.7,14.7,38c0,14.7-4.7,26.7-14.7,36c-9.3,9.3-21.3,14.7-36,14.7H363.3c-14.7,0-28-4.7-38-14.7
	C314.7,1060,310,1048,310,1033.3z M470.7,840c0-14.7,5.3-26.7,15.3-36.7c10-10,22.7-15.3,37.3-15.3h806c14,0,26,5.3,36,15.3
	c10,10,14.7,22,14.7,36.7s-4.7,26.7-14.7,37.3c-10,10-22,15.3-36,15.3H524c-14.7,0-27.3-5.3-37.3-15.3
	C476.7,867.3,470.7,854.7,470.7,840z M578.7,1222.7c0-14,5.3-26,16-36c9.3-9.3,21.3-14.7,36-14.7h806.7c14.7,0,27.3,4.7,37.3,14.7
	c10,9.3,14.7,21.3,14.7,36s-5.3,27.3-15.3,37.3c-10,10-22.7,15.3-37.3,15.3h-806c-14.7,0-26.7-5.3-37.3-15.3
	C582.7,1250,578.7,1237.3,578.7,1222.7z M1284,1033.3c0-15.3,4.7-28,14.7-38c10-10,22.7-14.7,38-14.7H1638c15.3,0,28,4.7,38,14.7
	c10,10,14.7,22.7,14.7,37.3c0,14.7-4.7,26.7-14.7,36c-10,9.3-22.7,14.7-37.3,14.7h-301.3c-15.3,0-28-4.7-38-14.7
	C1288.7,1060,1284,1048,1284,1033.3z"/>
</svg>
