<svg version="1" xmlns="http://www.w3.org/2000/svg" width="666.667" height="666.667" viewBox="0 0 500.000000 500.000000"><path d="M244.9 57.4c-1.5.7-3.5 2.2-4.6 3.2-1 1.1-5.9 5.5-10.8 9.9s-10 9-11.3 10.2c-1.4 1.3-6.3 5.8-11 10-4.7 4.3-10 9.1-11.8 10.8-1.7 1.6-5.1 4.8-7.5 6.9-2.4 2.1-8.9 8-14.3 13-9.4 8.6-16.2 14.8-26.5 24.1-2.4 2.2-4.9 4.5-5.5 5-.6.6-6 5.5-12.1 11-6 5.4-11.7 10.6-12.6 11.4-.9.9-5.3 5-9.9 9.1-4.6 4.1-9.5 8.6-11 10-1.5 1.4-4.5 4.1-6.6 6-45.6 41.4-46.1 41.9-47 45.5-1.1 4.5.5 9.2 4.2 12.4 1.9 1.7 4.2 3.1 5.2 3.2.9.1 12.1.2 24.7.4 12.7.1 23.2.3 23.5.4.3 0 .5 39.9.5 88.5 0 97.2-.3 91.7 6.3 95.8l3.3 2h139.3c104.6 0 140.2-.3 142.9-1.1 2.4-.8 4.4-2.5 5.9-4.9l2.3-3.7.2-87.5c0-48.1.2-88 .2-88.6.1-.7 7.6-1 23.9-1 26.9.1 29.4-.4 32.5-7 3.4-7 1.8-11.5-6.8-19-3.1-2.7-8-7.2-10.9-9.9-3-2.8-9.1-8.4-13.7-12.5-4.5-4.1-9.3-8.4-10.5-9.5-1.2-1.1-5.9-5.4-10.4-9.5-11.4-10.4-12.7-11.6-19.1-17.4-3-2.8-9.5-8.7-14.4-13.1-4.8-4.4-10-9.1-11.5-10.5-9.8-9-26.6-24.3-32-29-2.1-1.9-21.7-19.8-24.5-22.5-1.2-1.1-4.1-3.8-6.6-5.9-2.4-2.1-6.6-6-9.4-8.6-2.7-2.5-10.2-9.3-16.5-15-6.3-5.7-11.7-10.6-12-10.9-1.1-1.3-6.2-3.1-8.8-3.1-1.5 0-3.9.6-5.3 1.4zm11.4 33.3c2.9 2.7 6.4 5.9 7.8 7.3 1.4 1.4 4.5 4.3 7 6.4 2.4 2.2 7.1 6.4 10.5 9.5 3.3 3.1 10.3 9.4 15.4 14.1 5.2 4.7 10.1 9.2 11 10 .9.8 5.9 5.3 11 10 5.2 4.7 10.2 9.2 11 10 .9.8 5.6 5.1 10.4 9.5 4.9 4.4 10.1 9.1 11.6 10.5 1.5 1.4 5.2 4.7 8.1 7.4 3 2.7 9.5 8.6 14.4 13.2 5 4.5 10 9.1 11.1 10.1 1.2 1 5.9 5.2 10.5 9.5 4.6 4.2 10.4 9.5 12.9 11.7l4.5 4.1h-13.8c-16.7 0-20 1.1-22.7 7.4-1.7 3.8-1.8 10.1-1.6 91.3.1 57.4-.2 87.4-.9 87.7-.5.2-56.8.3-124.9.2l-123.9-.1-.1-89c-.1-81.2-.2-89.2-1.8-91.3-3.6-5.1-5.4-5.7-21.2-6.2l-15-.5 3.5-2.9c1.8-1.6 7.6-6.7 12.8-11.5 5.2-4.7 11.4-10.4 13.9-12.6 2.4-2.2 6.1-5.6 8.2-7.5 2-1.9 7.7-7.1 12.6-11.5 4.8-4.4 9.8-8.9 11-10 1.2-1.1 6.1-5.6 10.9-10 4.8-4.4 9.5-8.7 10.5-9.5 2.1-1.9 17.9-16.3 23-21 2.1-1.9 7.1-6.5 11.1-10.1 4.1-3.7 8.6-7.7 10-9 1.4-1.3 4.8-4.4 7.6-6.9 18.2-16.4 23.9-21.7 25.2-23.2.9-.9 2-1.7 2.4-1.7.4-.1 3.1 2 6 4.6z"/><path d="M232 211.6c-24.4 4-45.2 14.1-63.3 30.6-4.6 4.1-6 6.2-6.8 9.5-1.5 7.2 3.1 13.8 10.5 15 4.2.7 8.8-1.5 14.1-6.5 11.9-11.2 29-19.7 47-23.3 8.6-1.7 27.5-1.5 36.5.4 12.6 2.7 30.6 11.3 40 19.2 13 10.9 15.9 12.1 22.6 8.9 3.5-1.7 7.2-7.3 6.9-10.4-.1-.8-.3-2.6-.3-3.9-.1-1.6-2.3-4.5-6-8-11.7-11.4-28.4-21.4-43.7-26.4-7.2-2.4-10.7-3.3-20-5.2-5.8-1.2-30.1-1.1-37.5.1z"/><path d="M245.7 248.5c-.1.2-2.7.5-5.7.9-10.1 1.1-18.4 3.7-27.9 8.8-10.3 5.5-19.6 12.9-22 17.4-4.2 8.2 1.9 18.4 11 18.4 3.6 0 5.3-.9 14.5-8 10.7-8.1 20.4-11.6 33.7-11.9 13-.3 29 5.1 37.4 12.8 5.8 5.3 9.1 7.1 12.7 7.1 4.9 0 8.3-1.8 10.6-5.5 2.7-4.3 3-7.3 1.3-11.5-1.2-3.1-9.7-11.9-11.5-12-.4 0-1.3-.6-2-1.4-3.8-3.7-22-12-28.7-13.1-1.4-.2-3.9-.6-5.6-.9-3.1-.6-17.3-1.4-17.8-1.1z"/><path d="M235.3 293.2c-8.4 3.4-14.4 8.3-18.9 15.3-13.1 20.5-5.9 47.7 15.6 58.5 9.8 4.9 18.2 5.7 30.6 2.7 10.9-2.7 23.1-14.5 26.5-25.9 1.7-5.7 2-7.1 2-13.4.1-14.2-7.7-27.6-20.3-34.8-6.7-3.9-10.3-4.8-19.9-5.1-7.6-.2-9.4.1-15.6 2.7zm24.4 25.4c6.2 4.7 7.9 12.3 4.4 19.2-9 17.3-35.2 4.8-27.7-13.2 1.5-3.5 6.7-8.1 10.1-8.8 4.5-1 9.7.1 13.2 2.8z"/></svg>